<svg xmlns="http://www.w3.org/2000/svg" enable-background="new 0 0 32 32" viewBox="0 0 32 32" id="python"><path fill="#F5E6FE" d="M26,32H6c-3.314,0-6-2.686-6-6V6c0-3.314,2.686-6,6-6h20c3.314,0,6,2.686,6,6v20C32,29.314,29.314,32,26,32z"></path><polygon fill="#D9A4FC" points="20.155 12.904 20.155 12.904 20.155 12.902"></polygon><path fill="#D9A4FC" d="M21.8,19.832c1.111,0,1.522-0.775,1.907-1.936c0.4-1.196,0.383-2.347,0-3.879c-0.275-1.103-0.796-1.936-1.907-1.936h-1.432v1.694c0,1.314-1.115,2.421-2.386,2.421h-3.814c-1.043,0-1.907,0.893-1.907,1.939v3.636c0,1.036,0.9,1.643,1.907,1.939c1.207,0.353,2.368,0.417,3.814,0c0.961-0.279,1.907-0.84,1.907-1.939v-1.454h-3.811v-0.485H21.8z M18.222,21.286c0.396,0,0.718,0.325,0.718,0.725c0,0.404-0.322,0.728-0.718,0.728c-0.393,0-0.718-0.328-0.718-0.728C17.508,21.608,17.829,21.286,18.222,21.286z"></path><path fill="#BE63F9" d="M10.296,19.833h1.311V18.09c0-1.261,1.09-2.372,2.386-2.372h3.814c1.061,0,1.907-0.875,1.907-1.939v-3.64c0-1.036-0.872-1.811-1.907-1.986c-1.279-0.211-2.668-0.2-3.814,0.004l0.001-0.001c-1.615,0.286-1.907,0.882-1.907,1.986v1.454h3.818v0.486h-5.251c-1.111,0-2.082,0.668-2.386,1.936c-0.35,1.454-0.364,2.36,0,3.879C8.539,19.025,9.186,19.833,10.296,19.833z M13.753,10.624c-0.396,0-0.718-0.325-0.718-0.725c0.004-0.404,0.322-0.728,0.718-0.728c0.393,0,0.718,0.328,0.718,0.728S14.15,10.624,13.753,10.624z"></path></svg>